<svg width="126" height="145" viewBox="0 0 126 145" fill="none" xmlns="http://www.w3.org/2000/svg">
<path d="M88.8808 24.0945C80.9767 20.5271 72.2331 18.5452 63 18.5452C58.6632 18.5452 54.443 18.9882 50.3627 19.8043L63 81.5452L88.8808 24.0945Z" fill="#73FAF2"/>
<path d="M50.3627 19.8043C37.1425 22.509 25.4379 29.3406 16.6244 38.9002L63 81.5452L50.3627 19.8043Z" fill="#F2F2F2"/>
<path d="M125.44 89.9857C125.813 87.2344 126 84.4131 126 81.5452C126 70.7965 123.319 60.7007 118.562 51.8406L63 81.5452L125.44 89.9857Z" fill="#73FAF2"/>
<path d="M16.6243 38.9002C7.88082 48.4131 2.02849 60.6074 0.419678 74.1074L62.9767 81.5453L16.6243 38.9002Z" fill="#73FAF2"/>
<path d="M118.562 51.8406C112.01 39.623 101.565 29.8069 88.8808 24.0945L63 81.5453L118.562 51.8406Z" fill="#F2F2F2"/>
<path d="M36.2332 138.6C44.3705 142.424 53.4404 144.569 63.0233 144.569C67.0104 144.569 70.9041 144.196 74.6813 143.496L63.0233 81.5686L36.2332 138.6Z" fill="#F2F2F2"/>
<path d="M63 81.5452L108.699 124.913C117.606 115.54 123.645 103.416 125.44 89.9623L63 81.5452Z" fill="#F2F2F2"/>
<path d="M74.6813 143.473C87.9715 140.978 99.7694 134.333 108.699 124.936L63 81.5686L74.6813 143.473Z" fill="#73FAF2"/>
<path d="M0.443005 74.1074C0.163212 76.5556 0 79.0271 0 81.5453C0 92.6437 2.86788 103.066 7.90415 112.113L63 81.5453L0.443005 74.1074Z" fill="#F2F2F2"/>
<path d="M7.90417 112.136C14.3161 123.654 24.2254 132.957 36.2099 138.6L63 81.5686L7.90417 112.136Z" fill="#73FAF2"/>
<g clip-path="url(#clip0_12_205)">
<path fill-rule="evenodd" clip-rule="evenodd" d="M61.4053 9.98813C61.4053 5.27304 65.2587 1.45071 70.0122 1.45071C74.7657 1.45071 78.6191 5.27304 78.6191 9.98813C78.6191 11.5376 78.203 12.9907 77.4755 14.2434C77.4644 14.8009 77.372 15.3697 77.1887 15.9366L73.5583 27.1636C72.4521 30.5845 67.5723 30.5845 66.4661 27.1636L62.8357 15.9366C62.6524 15.3697 62.56 14.8008 62.5489 14.2433C61.8214 12.9906 61.4053 11.5376 61.4053 9.98813Z" fill="#15F4EF"/>
<path d="M77.4756 14.2434L76.0133 14.2147L76.0208 13.8422L76.2083 13.5194L77.4756 14.2434ZM77.1887 15.9367L75.7961 15.4936L77.1887 15.9367ZM73.5584 27.1637L74.951 27.6069L73.5584 27.1637ZM66.4661 27.1637L67.8587 26.7205L66.4661 27.1637ZM62.8357 15.9367L61.4431 16.3798L62.8357 15.9367ZM62.5489 14.2434L63.8162 13.5193L64.0037 13.8421L64.0111 14.2146L62.5489 14.2434ZM70.0122 2.90148C66.0665 2.90148 62.8678 6.07432 62.8678 9.98822H59.9429C59.9429 4.47194 64.4511 0.000121829 70.0122 0.00012207V2.90148ZM77.1567 9.98822C77.1567 6.07432 73.958 2.90148 70.0122 2.90148V0.00012207C75.5734 0.000122311 80.0817 4.47194 80.0817 9.98822H77.1567ZM76.2083 13.5194C76.8113 12.481 77.1567 11.2768 77.1567 9.98822H80.0817C80.0817 11.7986 79.5948 13.5005 78.7428 14.9675L76.2083 13.5194ZM75.7961 15.4936C75.9359 15.0614 76.005 14.6322 76.0133 14.2147L78.9378 14.2722C78.9238 14.9698 78.8082 15.6782 78.5813 16.3798L75.7961 15.4936ZM72.1657 26.7205L75.7961 15.4936L78.5813 16.3798L74.951 27.6069L72.1657 26.7205ZM67.8587 26.7205C68.5305 28.7981 71.4939 28.7981 72.1657 26.7205L74.951 27.6069C73.4103 32.3711 66.6142 32.3711 65.0735 27.6069L67.8587 26.7205ZM64.2284 15.4936L67.8587 26.7205L65.0735 27.6069L61.4431 16.3798L64.2284 15.4936ZM64.0111 14.2146C64.0195 14.6321 64.0886 15.0613 64.2284 15.4936L61.4431 16.3798C61.2163 15.6782 61.1006 14.9698 61.0867 14.2721L64.0111 14.2146ZM62.8678 9.98822C62.8678 11.2768 63.2132 12.481 63.8162 13.5193L61.2816 14.9675C60.4297 13.5004 59.9429 11.7985 59.9429 9.98822H62.8678Z" fill="#F2F2F2"/>
<path d="M66.7675 10.2757C66.7675 8.60654 68.1862 7.25343 69.9362 7.25343C71.6863 7.25343 73.105 8.60654 73.105 10.2757C73.105 11.9448 71.6863 13.2979 69.9362 13.2979C68.1862 13.2979 66.7675 11.9448 66.7675 10.2757Z" fill="white"/>
</g>
<defs>
<clipPath id="clip0_12_205">
<rect width="20.2312" height="31.1897" fill="white" transform="matrix(-1 0 0 1 80.0817 0)"/>
</clipPath>
</defs>
</svg>
