<svg width="63" height="58" viewBox="0 0 63 58" fill="none" xmlns="http://www.w3.org/2000/svg">
<g filter="url(#filter0_d_4_288)">
<path d="M11.0097 18.2028C11.2292 15.9101 12.7939 14.1636 15.0666 13.7901C18.021 13.3044 23.1334 12.7857 31.4923 12.7857C39.8512 12.7857 44.9635 13.3044 47.918 13.7901C50.1907 14.1636 51.7554 15.9101 51.9749 18.2028C52.2142 20.7019 52.4444 24.7589 52.4444 31.1188C52.4444 37.4786 52.2142 41.5356 51.9749 44.0347C51.7554 46.3274 50.1907 48.0739 47.918 48.4474C44.9635 48.9331 39.8512 49.4518 31.4923 49.4518C23.1334 49.4518 18.021 48.9331 15.0666 48.4474C12.7939 48.0739 11.2292 46.3274 11.0097 44.0347C10.7704 41.5356 10.5402 37.4786 10.5402 31.1188C10.5402 24.7589 10.7704 20.7019 11.0097 18.2028Z" fill="#15F4EE"/>
<path fill-rule="evenodd" clip-rule="evenodd" d="M40.5773 49.207C38.0938 49.3555 35.0945 49.4519 31.4922 49.4519C27.8899 49.4519 24.8906 49.3555 22.4071 49.207C22.3589 47.5819 22.3257 45.5147 22.3257 42.9043C22.3257 38.848 22.406 36.1032 22.4977 34.2911C22.601 32.2496 23.7827 30.5471 25.7985 30.2083C27.1255 29.9853 28.9714 29.8093 31.4922 29.8093C34.013 29.8093 35.8589 29.9853 37.1859 30.2083C39.2017 30.5471 40.3834 32.2496 40.4867 34.2911C40.5784 36.1032 40.6587 38.848 40.6587 42.9043C40.6587 45.5147 40.6255 47.582 40.5773 49.207Z" fill="#B2FEFA"/>
<path d="M5.52862 24.0784C3.98843 23.7481 3.5133 22.1469 4.56045 20.9701C6.39794 18.9052 9.8153 15.3845 15.7792 10.1667C22.6847 4.125 27.3139 1.49652 29.6675 0.406562C30.8379 -0.135459 32.1487 -0.135537 33.3191 0.406382C35.673 1.49623 40.3026 4.12467 47.2073 10.1667C53.1697 15.3841 56.5871 18.9047 58.425 20.9697C59.4725 22.1466 58.9974 23.7483 57.4569 24.0786C53.8727 24.8472 46.3 25.8808 31.4933 25.8808C16.6851 25.8808 9.11238 24.847 5.52862 24.0784Z" fill="#15F4EE"/>
</g>
<defs>
<filter id="filter0_d_4_288" x="0" y="0" width="62.9857" height="57.4519" filterUnits="userSpaceOnUse" color-interpolation-filters="sRGB">
<feFlood flood-opacity="0" result="BackgroundImageFix"/>
<feColorMatrix in="SourceAlpha" type="matrix" values="0 0 0 0 0 0 0 0 0 0 0 0 0 0 0 0 0 0 127 0" result="hardAlpha"/>
<feOffset dy="4"/>
<feGaussianBlur stdDeviation="2"/>
<feComposite in2="hardAlpha" operator="out"/>
<feColorMatrix type="matrix" values="0 0 0 0 0 0 0 0 0 0 0 0 0 0 0 0 0 0 0.25 0"/>
<feBlend mode="normal" in2="BackgroundImageFix" result="effect1_dropShadow_4_288"/>
<feBlend mode="normal" in="SourceGraphic" in2="effect1_dropShadow_4_288" result="shape"/>
</filter>
</defs>
</svg>
