<svg width="64" height="65" viewBox="0 0 64 65" fill="none" xmlns="http://www.w3.org/2000/svg">
<g filter="url(#filter0_d_3_140)">
<path d="M37.8909 33.8834H26.1402C25.3174 33.8834 24.6442 33.2102 24.6442 32.3874V24.1671C24.6442 23.3444 25.3174 22.6712 26.1402 22.6712H37.8909C38.7137 22.6712 39.3868 23.3444 39.3868 24.1671V32.3874C39.3868 33.2102 38.7211 33.8834 37.8909 33.8834Z" stroke="#052C4E" stroke-opacity="0.6" stroke-width="1.2" stroke-miterlimit="10" stroke-linecap="round" stroke-linejoin="round"/>
<path d="M24.6442 25.506H39.3868" stroke="#052C4E" stroke-opacity="0.6" stroke-width="1.2" stroke-miterlimit="10" stroke-linecap="round" stroke-linejoin="round"/>
<path d="M28.489 23.853V21.3921" stroke="#052C4E" stroke-opacity="0.6" stroke-width="1.2" stroke-miterlimit="10" stroke-linecap="round" stroke-linejoin="round"/>
<path d="M35.5424 23.853V21.3921" stroke="#052C4E" stroke-opacity="0.6" stroke-width="1.2" stroke-miterlimit="10" stroke-linecap="round" stroke-linejoin="round"/>
<path d="M42.9091 25.4676C36.4941 25.4676 32.6232 25.728 30.3783 25.9803C28.6083 26.1792 27.3105 27.4578 27.0903 29.2253C26.8601 31.0729 26.6381 33.9555 26.6381 38.2015C26.6381 42.4475 26.8601 45.3301 27.0903 47.1777C27.3105 48.9451 28.6124 50.2244 30.3824 50.4231C32.0199 50.607 34.5214 50.7951 38.2424 50.8834C39.2544 50.9075 40.2317 51.2815 40.991 51.9511L45.0899 55.5658C46.3184 56.6492 48.259 55.9916 48.5759 54.3846L49.059 51.9343C49.1861 51.2895 49.7432 50.8181 50.3998 50.789C52.6202 50.6909 54.2549 50.5558 55.4381 50.4229C57.2081 50.2241 58.5077 48.9451 58.7279 47.1777C58.9581 45.3301 59.1801 42.4475 59.1801 38.2015C59.1801 33.9555 58.9581 31.0729 58.7279 29.2253C58.5077 27.4578 57.2098 26.1792 55.4398 25.9803C53.195 25.728 49.3241 25.4676 42.9091 25.4676Z" fill="#B2FEFA"/>
<path d="M28.0528 0C19.011 0 13.3883 0.341905 10.0081 0.689568C7.12082 0.986528 5.01934 3.12825 4.68702 6.01163C4.34024 9.02052 4 13.5638 4 19.8082C4 26.0526 4.34024 30.5959 4.68702 33.6047C5.01934 36.4881 7.12305 38.6302 10.0103 38.927C11.4281 39.0728 13.2404 39.2176 15.5337 39.3365C16.2237 39.3723 16.7954 39.8966 16.8795 40.5823L17.2581 43.671C17.6182 46.6078 21.2101 47.831 23.2876 45.7242L28.0726 40.8719C28.8665 40.0669 29.9528 39.6132 31.0834 39.6029C38.378 39.5364 43.1127 39.2338 46.098 38.9268C48.9852 38.6298 51.0863 36.4881 51.4186 33.6047C51.7654 30.5959 52.1056 26.0526 52.1056 19.8082C52.1056 13.5638 51.7654 9.02052 51.4186 6.01163C51.0863 3.12825 48.9848 0.986528 46.0975 0.689568C42.7173 0.341905 37.0946 0 28.0528 0Z" fill="#15F4EE"/>
<path d="M15.319 14.1488C15.319 12.586 16.5859 11.3191 18.1487 11.3191H37.9569C39.5197 11.3191 40.7866 12.586 40.7866 14.1488C40.7866 15.7117 39.5197 16.9786 37.9569 16.9786H18.1487C16.5859 16.9786 15.319 15.7117 15.319 14.1488Z" fill="#B2FEFA"/>
<path d="M15.319 26.8826C15.319 25.3197 16.5859 24.0528 18.1487 24.0528H29.4677C31.0305 24.0528 32.2974 25.3197 32.2974 26.8826C32.2974 28.4454 31.0305 29.7123 29.4677 29.7123H18.1487C16.5859 29.7123 15.319 28.4454 15.319 26.8826Z" fill="#B2FEFA"/>
</g>
<defs>
<filter id="filter0_d_3_140" x="0" y="0" width="63.1801" height="64.0982" filterUnits="userSpaceOnUse" color-interpolation-filters="sRGB">
<feFlood flood-opacity="0" result="BackgroundImageFix"/>
<feColorMatrix in="SourceAlpha" type="matrix" values="0 0 0 0 0 0 0 0 0 0 0 0 0 0 0 0 0 0 127 0" result="hardAlpha"/>
<feOffset dy="4"/>
<feGaussianBlur stdDeviation="2"/>
<feComposite in2="hardAlpha" operator="out"/>
<feColorMatrix type="matrix" values="0 0 0 0 0 0 0 0 0 0 0 0 0 0 0 0 0 0 0.25 0"/>
<feBlend mode="normal" in2="BackgroundImageFix" result="effect1_dropShadow_3_140"/>
<feBlend mode="normal" in="SourceGraphic" in2="effect1_dropShadow_3_140" result="shape"/>
</filter>
</defs>
</svg>
