<svg width="30" height="26" viewBox="0 0 30 26" fill="none" xmlns="http://www.w3.org/2000/svg">
<path d="M0.398393 3.23073C0.538882 1.97942 1.3884 1.01303 2.62689 0.785756C4.58332 0.426735 8.28588 0 14.8333 0C21.3808 0 25.0833 0.426735 27.0398 0.785756C28.2783 1.01303 29.1278 1.97942 29.2683 3.23073C29.4586 4.92565 29.6667 7.88352 29.6667 12.7143C29.6667 17.545 29.4586 20.5029 29.2683 22.1978C29.1278 23.4491 28.2783 24.4155 27.0398 24.6428C25.0833 25.0018 21.3808 25.4286 14.8333 25.4286C8.28588 25.4286 4.58332 25.0018 2.62689 24.6428C1.3884 24.4155 0.538882 23.4491 0.398393 22.1978C0.2081 20.5029 0 17.545 0 12.7143C0 7.88352 0.2081 4.92565 0.398393 3.23073Z" fill="#1380FF"/>
<g filter="url(#filter0_d_12_222)">
<path d="M9.32329 8.68248C9.52082 7.50096 10.5781 6.82427 11.7167 7.19659C12.65 7.50178 13.9659 8.01027 15.76 8.85751C17.242 9.55733 18.3977 10.1801 19.281 10.7004C20.6801 11.5246 20.6801 13.2539 19.281 14.0781C18.3977 14.5984 17.242 15.2212 15.76 15.921C13.9659 16.7682 12.65 17.2767 11.7166 17.5819C10.5781 17.9542 9.52082 17.2776 9.32329 16.096C9.1663 15.157 9.02893 13.9029 9.02893 12.3893C9.02893 10.8757 9.1663 9.62153 9.32329 8.68248Z" fill="#5A9BFE"/>
</g>
<defs>
<filter id="filter0_d_12_222" x="5.02893" y="7.09421" width="19.3014" height="18.5901" filterUnits="userSpaceOnUse" color-interpolation-filters="sRGB">
<feFlood flood-opacity="0" result="BackgroundImageFix"/>
<feColorMatrix in="SourceAlpha" type="matrix" values="0 0 0 0 0 0 0 0 0 0 0 0 0 0 0 0 0 0 127 0" result="hardAlpha"/>
<feOffset dy="4"/>
<feGaussianBlur stdDeviation="2"/>
<feComposite in2="hardAlpha" operator="out"/>
<feColorMatrix type="matrix" values="0 0 0 0 0 0 0 0 0 0 0 0 0 0 0 0 0 0 0.4 0"/>
<feBlend mode="normal" in2="BackgroundImageFix" result="effect1_dropShadow_12_222"/>
<feBlend mode="normal" in="SourceGraphic" in2="effect1_dropShadow_12_222" result="shape"/>
</filter>
</defs>
</svg>
