<svg width="46" height="40" viewBox="0 0 46 40" fill="none" xmlns="http://www.w3.org/2000/svg">
<path d="M0.617611 5.00947C0.835447 3.06924 2.15268 1.57078 4.07303 1.21838C7.1066 0.661694 12.8476 1.52588e-05 22.9999 1.52588e-05C33.1521 1.52588e-05 38.8932 0.661694 41.9267 1.21838C43.8471 1.57078 45.1643 3.06923 45.3821 5.00947C45.6772 7.63754 45.9999 12.2239 45.9999 19.7143C45.9999 27.2047 45.6772 31.7911 45.3821 34.4191C45.1643 36.3594 43.8471 37.8578 41.9267 38.2102C38.8932 38.7669 33.1521 39.4286 22.9999 39.4286C12.8476 39.4286 7.10661 38.7669 4.07304 38.2102C2.15268 37.8578 0.835447 36.3594 0.617611 34.4191C0.322549 31.7911 -0.00012207 27.2047 -0.00012207 19.7143C-0.00012207 12.2239 0.322549 7.63754 0.617611 5.00947Z" fill="#73FAF2"/>
<g filter="url(#filter0_d_12_190)">
<path d="M14.4563 13.4627C14.7626 11.6307 16.4019 10.5815 18.1674 11.1588C19.6145 11.632 21.6549 12.4204 24.4369 13.7341C26.7347 14.8192 28.5267 15.7849 29.8963 16.5916C32.0657 17.8696 32.0657 20.5511 29.8963 21.829C28.5267 22.6357 26.7347 23.6014 24.4369 24.6865C21.6549 26.0002 19.6145 26.7887 18.1674 27.2619C16.4019 27.8392 14.7626 26.7899 14.4563 24.9579C14.2129 23.5018 13.9999 21.5572 13.9999 19.2103C13.9999 16.8634 14.2129 14.9188 14.4563 13.4627Z" fill="#15F4EF"/>
</g>
<defs>
<filter id="filter0_d_12_190" x="9.99988" y="11" width="25.5234" height="24.4206" filterUnits="userSpaceOnUse" color-interpolation-filters="sRGB">
<feFlood flood-opacity="0" result="BackgroundImageFix"/>
<feColorMatrix in="SourceAlpha" type="matrix" values="0 0 0 0 0 0 0 0 0 0 0 0 0 0 0 0 0 0 127 0" result="hardAlpha"/>
<feOffset dy="4"/>
<feGaussianBlur stdDeviation="2"/>
<feComposite in2="hardAlpha" operator="out"/>
<feColorMatrix type="matrix" values="0 0 0 0 0 0 0 0 0 0 0 0 0 0 0 0 0 0 0.4 0"/>
<feBlend mode="normal" in2="BackgroundImageFix" result="effect1_dropShadow_12_190"/>
<feBlend mode="normal" in="SourceGraphic" in2="effect1_dropShadow_12_190" result="shape"/>
</filter>
</defs>
</svg>
