<svg width="63" height="76" viewBox="0 0 63 76" fill="none" xmlns="http://www.w3.org/2000/svg">
<g filter="url(#filter0_d_10_20)">
<path d="M4.22919 40.3125C4.22919 55.3737 16.4388 67.5833 31.5 67.5833C46.5612 67.5833 58.7709 55.3737 58.7709 40.3125C58.7709 25.2513 46.5612 13.0417 31.5 13.0417C16.4388 13.0417 4.22919 25.2513 4.22919 40.3125Z" fill="#15F4EE"/>
<path d="M23.4792 35.3965C23.4792 37.1112 22.0428 38.5014 20.2708 38.5014C18.4989 38.5014 17.0625 37.1112 17.0625 35.3965C17.0625 33.6817 18.4989 32.2916 20.2708 32.2916C22.0428 32.2916 23.4792 33.6817 23.4792 35.3965Z" fill="#B2FEFA"/>
<path d="M25.0833 45.4872C26.4122 45.4872 27.4896 46.5297 27.4896 47.8158C27.4896 49.9593 29.2851 51.6969 31.5 51.6969C33.7149 51.6969 35.5104 49.9593 35.5104 47.8158C35.5104 46.5297 36.5878 45.4872 37.9166 45.4872C39.2455 45.4872 40.3229 46.5297 40.3229 47.8158C40.3229 52.5314 36.3728 56.3541 31.5 56.3541C26.6272 56.3541 22.6771 52.5314 22.6771 47.8158C22.6771 46.5297 23.7544 45.4872 25.0833 45.4872Z" fill="#B2FEFA"/>
<path d="M42.7291 38.5014C40.9572 38.5014 39.5208 37.1112 39.5208 35.3965C39.5208 33.6817 40.9572 32.2916 42.7291 32.2916C44.5011 32.2916 45.9375 33.6817 45.9375 35.3965C45.9375 37.1112 44.5011 38.5014 42.7291 38.5014Z" fill="#B2FEFA"/>
<path d="M22.7988 9.39433C23.4822 9.75652 24.3172 9.53707 24.7527 8.88904C26.2535 6.6556 28.659 3.07615 30.1268 0.891977C30.7394 -0.0195749 32.0545 -0.0195749 32.667 0.891977C34.1348 3.07613 36.5404 6.6556 38.0413 8.88904C38.4768 9.53707 39.3118 9.75652 39.9952 9.39433C42.3222 8.16108 44.9116 6.67464 46.8595 5.53293C48.0253 4.8496 49.423 5.88835 49.098 7.21953C48.4867 9.72323 47.5412 13.3233 46.3104 17.1868C46.1694 17.6296 45.8423 17.9798 45.4026 18.1044C43.8763 18.537 39.6568 19.4583 31.397 19.4583C23.2246 19.4583 19.0075 18.5564 17.4407 18.1182C16.9731 17.9875 16.6326 17.6031 16.5044 17.1259C15.4007 13.0164 14.5252 9.76733 13.9124 7.49787C13.5432 6.13043 15.0024 4.98826 16.2086 5.69338C18.1212 6.8115 20.5794 8.21808 22.7988 9.39433Z" fill="#B2FEFA"/>
</g>
<defs>
<filter id="filter0_d_10_20" x="0.229187" y="0.208313" width="62.5417" height="75.375" filterUnits="userSpaceOnUse" color-interpolation-filters="sRGB">
<feFlood flood-opacity="0" result="BackgroundImageFix"/>
<feColorMatrix in="SourceAlpha" type="matrix" values="0 0 0 0 0 0 0 0 0 0 0 0 0 0 0 0 0 0 127 0" result="hardAlpha"/>
<feOffset dy="4"/>
<feGaussianBlur stdDeviation="2"/>
<feComposite in2="hardAlpha" operator="out"/>
<feColorMatrix type="matrix" values="0 0 0 0 0 0 0 0 0 0 0 0 0 0 0 0 0 0 0.25 0"/>
<feBlend mode="normal" in2="BackgroundImageFix" result="effect1_dropShadow_10_20"/>
<feBlend mode="normal" in="SourceGraphic" in2="effect1_dropShadow_10_20" result="shape"/>
</filter>
</defs>
</svg>
