<svg width="86" height="86" viewBox="0 0 86 86" fill="none" xmlns="http://www.w3.org/2000/svg">
<path fill-rule="evenodd" clip-rule="evenodd" d="M48.3528 8.46385C55.5128 12.0298 61.0412 16.1807 64.9415 19.646C67.2676 21.7127 69.0204 23.5405 70.2011 24.8644C70.7916 25.5264 71.2399 26.0632 71.5455 26.4416C71.6986 26.6308 71.8159 26.7806 71.8978 26.8866C71.9386 26.9397 71.9707 26.9818 71.994 27.0124L72.0221 27.05L72.0311 27.0622L72.0345 27.0665L72.0358 27.0683C72.0363 27.0692 72.0368 27.0699 69.8752 28.6667L67.7135 30.2634L67.7039 30.2509C67.6922 30.2351 67.6718 30.2082 67.6426 30.1706C67.5845 30.0953 67.4919 29.9771 67.3649 29.82C67.1108 29.5053 66.7192 29.0354 66.1899 28.4422C65.131 27.255 63.5244 25.5771 61.3714 23.6642C57.7827 20.4757 52.692 16.6487 46.1026 13.3481C45.2261 13.9687 44.1558 14.3333 43.0002 14.3333C41.8445 14.3333 40.7742 13.9687 39.8977 13.3481C33.3083 16.6487 28.2175 20.4757 24.629 23.6642C22.4759 25.5771 20.8693 27.255 19.8105 28.4422C19.2812 29.0354 18.8895 29.5053 18.6355 29.82C18.5085 29.9771 18.4158 30.0953 18.3578 30.1706C18.3286 30.2082 18.3081 30.2351 18.2963 30.2509L18.2868 30.2634L18.2859 30.2646C17.4039 31.4575 15.7219 31.71 14.5284 30.8283C13.3345 29.9464 13.0816 28.2639 13.9634 27.0699L16.1252 28.6667C13.9634 27.0699 13.964 27.0692 13.9646 27.0683L13.9659 27.0665L13.9692 27.0622L13.9783 27.0499L14.0064 27.0124C14.0296 26.9818 14.0617 26.9397 14.1026 26.8866C14.1845 26.7806 14.3019 26.6308 14.4548 26.4416C14.7605 26.0632 15.2087 25.5264 15.7992 24.8642C16.98 23.5405 18.7328 21.7127 21.0589 19.646C24.9592 16.1807 30.4875 12.0298 37.6476 8.46385C37.8972 5.72709 40.1984 3.58333 43.0002 3.58333C45.802 3.58333 48.1032 5.72709 48.3528 8.46385ZM67.7144 30.2646C67.7139 30.2641 67.7135 30.2634 69.8752 28.6667L72.0368 27.0699C72.9187 28.2639 72.6659 29.9466 71.4719 30.8283C70.2785 31.71 68.5965 31.4575 67.7144 30.2646ZM67.7144 30.2646L67.7135 30.2634C67.7137 30.2638 67.7141 30.2643 67.7144 30.2646Z" fill="#1380FF"/>
<path d="M6.31125 32.976C6.69019 29.7653 8.94687 27.3544 12.1386 26.8386C17.1269 26.0326 26.5036 25.0833 43 25.0833C59.4964 25.0833 68.8731 26.0326 73.8615 26.8386C77.0531 27.3544 79.3097 29.7653 79.6887 32.976C80.1497 36.8818 80.625 43.4148 80.625 53.75C80.625 64.0852 80.1497 70.6182 79.6887 74.524C79.3097 77.7347 77.0531 80.1455 73.8615 80.6614C68.8731 81.4674 59.4964 82.4167 43 82.4167C26.5036 82.4167 17.1269 81.4674 12.1386 80.6614C8.94687 80.1455 6.69019 77.7347 6.31125 74.524C5.85028 70.6182 5.375 64.0852 5.375 53.75C5.375 43.4148 5.85028 36.8818 6.31125 32.976Z" fill="#DCE2F0"/>
<path fill-rule="evenodd" clip-rule="evenodd" d="M80.0771 69.0116C79.9313 71.1156 79.7709 72.8347 79.6152 74.2209C79.2589 77.3948 77.1042 79.8462 73.9627 80.4225C69.0001 81.3332 59.6086 82.4156 43.0009 82.4156C26.393 82.4156 17.0015 81.3332 12.039 80.4225C8.89753 79.8462 6.74271 77.3948 6.38636 74.2209C6.21046 72.6542 6.02857 70.6621 5.86841 68.1697C14.8277 59.5491 20.8602 55.0063 24.465 52.6669C27.0597 50.9831 30.2082 51.2789 32.6085 53.2297C35.6167 55.675 40.5848 60.0144 48.2435 67.4921C53.7005 62.6617 57.653 59.7587 60.2984 58.0419C62.8931 56.3581 66.0415 56.6539 68.4417 58.6047C70.8903 60.5951 74.6374 63.8403 80.0771 69.0116Z" fill="#1380FF"/>
<path d="M59.125 48.375C62.0935 48.375 64.5 45.9685 64.5 43C64.5 40.0315 62.0935 37.625 59.125 37.625C56.1565 37.625 53.75 40.0315 53.75 43C53.75 45.9685 56.1565 48.375 59.125 48.375Z" fill="#5A9BFE"/>
<path fill-rule="evenodd" clip-rule="evenodd" d="M63.1012 34.3692C62.1668 34.1143 61.2801 34.5076 60.5495 35.4051C59.8111 36.3125 59.3536 37.6158 59.3536 38.7835H57.6832C57.6832 37.6158 57.2258 36.3124 56.4874 35.4051C55.7568 34.5076 54.8702 34.1143 53.9357 34.3692C53.2997 34.5426 52.9632 35.1552 53.0567 35.8845C53.1481 36.5972 53.6134 37.113 54.3425 37.113V38.7835C52.566 38.7835 51.5696 37.4202 51.3999 36.097C51.2323 34.7904 51.8354 33.2106 53.4962 32.7576C55.2763 32.2721 56.7908 33.1317 57.7829 34.3507C58.0613 34.6928 58.3079 35.0723 58.5184 35.4757C58.729 35.0723 58.9756 34.6928 59.254 34.3507C60.2462 33.1317 61.7607 32.2721 63.5408 32.7576C65.2016 33.2106 65.8046 34.7904 65.6371 36.097C65.4674 37.4202 64.471 38.7835 62.6945 38.7835V37.113C63.4236 37.113 63.8889 36.5972 63.9802 35.8845C64.0737 35.1552 63.7373 34.5426 63.1012 34.3692Z" fill="#FCFDFF"/>
<path d="M66.66 48.4075C66.5721 49.1913 66.0013 49.7499 65.2166 49.8286C64.1092 49.9397 62.089 50.0589 58.5188 50.0589C54.9485 50.0589 52.9283 49.9397 51.8209 49.8286C51.0362 49.7499 50.4654 49.1913 50.3776 48.4075C50.2725 47.4701 50.1666 45.8999 50.1666 43.3772C50.1666 40.8545 50.2725 39.2842 50.3776 38.3468C50.4654 37.5631 51.0362 37.0045 51.8209 36.9257C52.9283 36.8147 54.9485 36.6955 58.5188 36.6955C62.089 36.6955 64.1092 36.8147 65.2166 36.9257C66.0013 37.0045 66.5721 37.5631 66.66 38.3468C66.7651 39.2842 66.8709 40.8545 66.8709 43.3772C66.8709 45.8999 66.7651 47.4701 66.66 48.4075Z" fill="#1380FF"/>
<path fill-rule="evenodd" clip-rule="evenodd" d="M59.7716 36.7007C59.3768 36.6973 58.9596 36.6955 58.5188 36.6955C58.0779 36.6955 57.6607 36.6973 57.2659 36.7007V42.1244H50.176C50.1699 42.5133 50.1666 42.9303 50.1666 43.3772C50.1666 43.8241 50.1699 44.2411 50.176 44.63H57.2659V50.0537C57.6607 50.0571 58.0779 50.0589 58.5188 50.0589C58.9596 50.0589 59.3768 50.0571 59.7716 50.0537V44.63H66.8615C66.8676 44.2411 66.8709 43.8241 66.8709 43.3772C66.8709 42.9303 66.8676 42.5133 66.8615 42.1244H59.7716V36.7007Z" fill="#FCFDFF"/>
</svg>
