<svg width="68" height="68" viewBox="0 0 68 68" fill="none" xmlns="http://www.w3.org/2000/svg">
<g filter="url(#filter0_d_5_13)">
<path fill-rule="evenodd" clip-rule="evenodd" d="M28.143 1.19552C27.9306 1.3356 27.7868 1.54772 27.6895 1.7828C27.1919 2.98437 25.5814 6.99714 24.9808 10H42.1237C41.5231 6.99714 39.9126 2.98437 39.4151 1.7828C39.3177 1.54772 39.1739 1.3356 38.9615 1.19552C38.3476 0.790609 36.7405 0 33.5523 0C30.364 0 28.757 0.790609 28.143 1.19552ZM28.143 58.8045C27.9306 58.6644 27.7868 58.4523 27.6895 58.2172C27.1919 57.0156 25.5814 53.0029 24.9808 50H42.1237C41.5231 53.0029 39.9126 57.0156 39.4151 58.2172C39.3177 58.4523 39.1739 58.6644 38.9615 58.8045C38.3476 59.2094 36.7405 60 33.5523 60C30.364 60 28.757 59.2094 28.143 58.8045Z" fill="#15F4EE"/>
<path fill-rule="evenodd" clip-rule="evenodd" d="M5.90226 20.2823C5.91737 20.5363 6.02918 20.7668 6.18409 20.9687C6.9759 22.0004 9.64582 25.4015 11.9461 27.423L20.5175 12.5769C17.6167 11.5956 13.3363 10.9839 12.0469 10.814C11.7946 10.7808 11.539 10.7992 11.3115 10.9131C10.6539 11.2424 9.16567 12.2388 7.57154 14.9999C5.97741 17.7611 5.85858 19.5481 5.90226 20.2823ZM55.7931 49.0867C55.5656 49.2007 55.31 49.2191 55.0577 49.1859C53.7683 49.016 49.4879 48.4043 46.5871 47.423L55.1585 32.5769C57.4588 34.5984 60.1287 37.9995 60.9205 39.0312C61.0754 39.233 61.1872 39.4636 61.2024 39.7176C61.246 40.4518 61.1272 42.2388 59.5331 44.9999C57.9389 47.7611 56.4507 48.7575 55.7931 49.0867Z" fill="#15F4EE"/>
<path fill-rule="evenodd" clip-rule="evenodd" d="M11.3114 49.0867C11.539 49.2006 11.7946 49.2191 12.0468 49.1859C13.3362 49.016 17.6166 48.4043 20.5174 47.423L11.946 32.5769C9.64574 34.5984 6.97582 37.9995 6.18401 39.0312C6.0291 39.233 5.91729 39.4636 5.90218 39.7176C5.8585 40.4518 5.97733 42.2388 7.57146 44.9999C9.16559 47.761 10.6538 48.7575 11.3114 49.0867ZM61.2023 20.2823C61.1872 20.5362 61.0753 20.7668 60.9204 20.9687C60.1286 22.0004 57.4587 25.4015 55.1584 27.423L46.587 12.5769C49.4879 11.5955 53.7683 10.9839 55.0576 10.814C55.3099 10.7808 55.5655 10.7992 55.793 10.9131C56.4507 11.2424 57.9389 12.2388 59.533 14.9999C61.1271 17.761 61.2459 19.5481 61.2023 20.2823Z" fill="#15F4EE"/>
<path d="M56.4095 30C56.4095 42.6237 46.176 52.8571 33.5523 52.8571C20.9287 52.8571 10.6952 42.6237 10.6952 30C10.6952 17.3764 20.9287 7.14286 33.5523 7.14286C46.176 7.14286 56.4095 17.3764 56.4095 30Z" fill="#15F4EE"/>
<path d="M44.9809 30C44.9809 36.3118 39.8641 41.4286 33.5523 41.4286C27.2405 41.4286 22.1237 36.3118 22.1237 30C22.1237 23.6882 27.2405 18.5714 33.5523 18.5714C39.8641 18.5714 44.9809 23.6882 44.9809 30Z" fill="#B2FEFA"/>
</g>
<defs>
<filter id="filter0_d_5_13" x="0" y="0" width="67.1045" height="68" filterUnits="userSpaceOnUse" color-interpolation-filters="sRGB">
<feFlood flood-opacity="0" result="BackgroundImageFix"/>
<feColorMatrix in="SourceAlpha" type="matrix" values="0 0 0 0 0 0 0 0 0 0 0 0 0 0 0 0 0 0 127 0" result="hardAlpha"/>
<feOffset dy="4"/>
<feGaussianBlur stdDeviation="2"/>
<feComposite in2="hardAlpha" operator="out"/>
<feColorMatrix type="matrix" values="0 0 0 0 0 0 0 0 0 0 0 0 0 0 0 0 0 0 0.25 0"/>
<feBlend mode="normal" in2="BackgroundImageFix" result="effect1_dropShadow_5_13"/>
<feBlend mode="normal" in="SourceGraphic" in2="effect1_dropShadow_5_13" result="shape"/>
</filter>
</defs>
</svg>
