<svg width="63" height="61" viewBox="0 0 63 61" fill="none" xmlns="http://www.w3.org/2000/svg">
<g filter="url(#filter0_d_4_292)">
<path d="M59 3.29899C59 1.47701 57.523 0 55.701 0H51.2449C48.8228 0 46.7115 1.64842 46.1241 3.99818L44.4845 10.5568H8.85541C5.94024 10.5568 3.68264 12.9156 4.03662 15.8092C4.32478 18.1649 4.79362 21.4096 5.55642 25.7321C7.53581 36.9487 10.175 40.9074 10.175 40.9074C10.175 40.9074 13.1074 42.227 26.1568 42.227C39.2061 42.227 43.4581 40.9074 43.4581 40.9074C43.4581 40.9074 45.8041 34.9693 48.5899 23.7527C49.9278 18.3659 51.5951 10.4714 52.1839 7.64903C52.3118 7.03589 52.8515 6.59797 53.4779 6.59797H55.701C57.523 6.59797 59 5.12097 59 3.29899Z" fill="#15F4EE"/>
<path d="M20.7317 44.8662C20.7317 49.239 17.1869 52.7838 12.8141 52.7838C8.44136 52.7838 4.89655 49.239 4.89655 44.8662C4.89655 40.4935 8.44136 36.9486 12.8141 36.9486C17.1869 36.9486 20.7317 40.4935 20.7317 44.8662Z" fill="#B2FEFA"/>
<path d="M48.4432 44.8662C48.4432 49.239 44.8984 52.7838 40.5256 52.7838C36.1528 52.7838 32.608 49.239 32.608 44.8662C32.608 40.4935 36.1528 36.9486 40.5256 36.9486C44.8984 36.9486 48.4432 40.4935 48.4432 44.8662Z" fill="#B2FEFA"/>
<path d="M18.3813 22.6813C18.2267 21.1354 19.4407 19.7939 20.9943 19.7939C22.3435 19.7939 23.4731 20.8162 23.6074 22.1587L24.4018 30.1025C24.5564 31.6484 23.3424 32.9899 21.7887 32.9899C20.4395 32.9899 19.3099 31.9675 19.1756 30.6251L18.3813 22.6813Z" fill="#B2FEFA"/>
<path d="M31.052 22.1587C31.1862 20.8162 32.3159 19.7939 33.665 19.7939C35.2187 19.7939 36.4327 21.1354 36.2781 22.6813L35.4837 30.6251C35.3495 31.9675 34.2198 32.9899 32.8707 32.9899C31.317 32.9899 30.103 31.6484 30.2576 30.1025L31.052 22.1587Z" fill="#B2FEFA"/>
</g>
<defs>
<filter id="filter0_d_4_292" x="0" y="0" width="63" height="60.7838" filterUnits="userSpaceOnUse" color-interpolation-filters="sRGB">
<feFlood flood-opacity="0" result="BackgroundImageFix"/>
<feColorMatrix in="SourceAlpha" type="matrix" values="0 0 0 0 0 0 0 0 0 0 0 0 0 0 0 0 0 0 127 0" result="hardAlpha"/>
<feOffset dy="4"/>
<feGaussianBlur stdDeviation="2"/>
<feComposite in2="hardAlpha" operator="out"/>
<feColorMatrix type="matrix" values="0 0 0 0 0 0 0 0 0 0 0 0 0 0 0 0 0 0 0.25 0"/>
<feBlend mode="normal" in2="BackgroundImageFix" result="effect1_dropShadow_4_292"/>
<feBlend mode="normal" in="SourceGraphic" in2="effect1_dropShadow_4_292" result="shape"/>
</filter>
</defs>
</svg>
